<svg width="49" height="49" viewBox="0 0 49 49" fill="none" xmlns="http://www.w3.org/2000/svg">
<g clip-path="url(#clip0_12_43)">
<path d="M24.4142 49.0163L22.991 47.7964C21.029 46.1536 3.89746 31.3582 3.89746 20.5357C3.89746 9.2046 13.0831 0.0189209 24.4142 0.0189209C35.7453 0.0189209 44.9309 9.2046 44.9309 20.5357C44.9309 31.3582 27.7994 46.1537 25.8455 47.8045L24.4142 49.0163ZM24.4142 4.45524C15.5374 4.46529 8.34392 11.6588 8.33388 20.5356C8.33388 27.3345 18.8739 38.1957 24.4142 43.1668C29.9546 38.1937 40.4945 27.3263 40.4945 20.5356C40.4845 11.6588 33.291 4.46538 24.4142 4.45524Z" fill="#464646"/>
<path d="M24.4142 28.6683C19.9226 28.6683 16.2815 25.0272 16.2815 20.5356C16.2815 16.0441 19.9226 12.403 24.4142 12.403C28.9057 12.403 32.5468 16.0441 32.5468 20.5356C32.5468 25.0272 28.9058 28.6683 24.4142 28.6683ZM24.4142 16.4692C22.1684 16.4692 20.3478 18.2897 20.3478 20.5355C20.3478 22.7813 22.1684 24.6018 24.4142 24.6018C26.6599 24.6018 28.4805 22.7813 28.4805 20.5355C28.4805 18.2897 26.66 16.4692 24.4142 16.4692Z" fill="#464646"/>
</g>
<defs>
<clipPath id="clip0_12_43">
<rect width="49" height="49" fill="white"/>
</clipPath>
</defs>
</svg>
