<svg width="714" height="104" viewBox="0 0 714 104" fill="none" xmlns="http://www.w3.org/2000/svg">
<g filter="url(#filter0_d_4_9)">
<path d="M10 22C10 14.8203 15.8203 9 23 9H67.2703C74.45 9 80.2703 14.8203 80.2703 22V66.2703C80.2703 73.45 74.45 79.2703 67.2703 79.2703H57.1146C55.2754 79.2703 53.4571 79.6605 51.7798 80.4153L39.0581 86.1401C35.4261 87.7745 31.1454 86.4517 29.0686 83.0533V83.0533C27.6326 80.7035 25.0771 79.2703 22.3232 79.2703H20.7358C14.8066 79.2703 10 74.4637 10 68.5345V22Z" fill="#9BA6CE"/>
</g>
<g clip-path="url(#clip0_4_9)">
<path d="M57.8562 26.7936L53.5615 27.2992L53.3087 25.1519C53.1076 23.4434 52.236 21.8847 50.8856 20.8188C49.5353 19.753 47.8168 19.2672 46.1083 19.4683L22.4876 22.2493C20.7791 22.4504 19.2205 23.322 18.1546 24.6724C17.0887 26.0227 16.6029 27.7412 16.8041 29.4497L20.5963 61.6597L24.979 61.1437C24.9655 61.5055 24.9784 61.8678 25.0173 62.2277C25.252 64.221 26.2689 66.0394 27.8443 67.2829C29.4197 68.5264 31.4246 69.0932 33.4178 68.8585C35.4111 68.6238 37.2295 67.6069 38.473 66.0316C39.7166 64.4562 40.2833 62.4513 40.0487 60.458C40.003 60.0989 39.9313 59.7435 39.8342 59.3947L52.8943 57.8571C52.8809 58.2189 52.8937 58.5812 52.9326 58.9411C53.1673 60.9344 54.1842 62.7528 55.7596 63.9964C57.335 65.2399 59.3399 65.8066 61.3331 65.572C63.3264 65.3373 65.1448 64.3204 66.3883 62.745C67.6319 61.1696 68.1986 59.1647 67.964 57.1715C67.9183 56.8123 67.8466 56.4569 67.7495 56.1082L72.1322 55.5922L69.8569 36.2662C69.5184 33.4201 68.0648 30.8245 65.8151 29.0487C63.5653 27.2729 60.7031 26.4619 57.8562 26.7936V26.7936ZM58.3618 31.0883C60.0703 30.8871 61.7888 31.3729 63.1391 32.4388C64.4895 33.5047 65.3611 35.0633 65.5622 36.7718L65.8151 38.9191L55.0784 40.1832L54.0672 31.5939L58.3618 31.0883ZM35.754 60.9636C35.8546 61.8179 35.6117 62.6771 35.0787 63.3523C34.5458 64.0275 33.7665 64.4633 32.9122 64.5638C32.0579 64.6644 31.1987 64.4215 30.5235 63.8886C29.8484 63.3556 29.4126 62.5763 29.312 61.7221C29.2701 61.3549 29.2949 60.9832 29.3853 60.6249L35.4279 59.9135C35.599 60.241 35.7095 60.5968 35.754 60.9636V60.9636ZM52.3006 53.5728L24.3853 56.8594L21.0988 28.9441C21.0317 28.3746 21.1936 27.8017 21.5489 27.3516C21.9042 26.9015 22.4238 26.611 22.9933 26.5439L46.6139 23.763C47.1834 23.6959 47.7562 23.8579 48.2064 24.2132C48.6565 24.5685 48.947 25.088 49.0141 25.6575L52.3006 53.5728ZM63.6693 57.6771C63.7699 58.5313 63.527 59.3906 62.994 60.0657C62.4611 60.7409 61.6818 61.1767 60.8275 61.2773C59.9733 61.3779 59.114 61.135 58.4389 60.602C57.7637 60.0691 57.3279 59.2898 57.2273 58.4355C57.185 58.0684 57.2099 57.6966 57.3006 57.3383L63.3432 56.6269C63.5146 56.9543 63.6251 57.3102 63.6693 57.6771V57.6771ZM56.5953 53.0672L55.584 44.4779L66.3207 43.2138L67.3319 51.8031L56.5953 53.0672Z" fill="#4D4D4D"/>
</g>
<path d="M93.256 55V38.2H100.168C101.656 38.2 102.928 38.44 103.984 38.92C105.056 39.4 105.88 40.088 106.456 40.984C107.032 41.88 107.32 42.944 107.32 44.176C107.32 45.408 107.032 46.472 106.456 47.368C105.88 48.264 105.056 48.952 103.984 49.432C102.928 49.912 101.656 50.152 100.168 50.152H94.984L96.376 48.688V55H93.256ZM96.376 49.024L94.984 47.512H100.024C101.4 47.512 102.432 47.224 103.12 46.648C103.824 46.056 104.176 45.232 104.176 44.176C104.176 43.104 103.824 42.28 103.12 41.704C102.432 41.128 101.4 40.84 100.024 40.84H94.984L96.376 39.304V49.024ZM115.861 55.168C114.549 55.168 113.381 54.888 112.357 54.328C111.333 53.752 110.525 52.968 109.933 51.976C109.341 50.984 109.045 49.856 109.045 48.592C109.045 47.312 109.341 46.184 109.933 45.208C110.525 44.216 111.333 43.44 112.357 42.88C113.381 42.32 114.549 42.04 115.861 42.04C117.189 42.04 118.365 42.32 119.389 42.88C120.429 43.44 121.237 44.208 121.813 45.184C122.405 46.16 122.701 47.296 122.701 48.592C122.701 49.856 122.405 50.984 121.813 51.976C121.237 52.968 120.429 53.752 119.389 54.328C118.365 54.888 117.189 55.168 115.861 55.168ZM115.861 52.6C116.597 52.6 117.253 52.44 117.829 52.12C118.405 51.8 118.853 51.336 119.173 50.728C119.509 50.12 119.677 49.408 119.677 48.592C119.677 47.76 119.509 47.048 119.173 46.456C118.853 45.848 118.405 45.384 117.829 45.064C117.253 44.744 116.605 44.584 115.885 44.584C115.149 44.584 114.493 44.744 113.917 45.064C113.357 45.384 112.909 45.848 112.573 46.456C112.237 47.048 112.069 47.76 112.069 48.592C112.069 49.408 112.237 50.12 112.573 50.728C112.909 51.336 113.357 51.8 113.917 52.12C114.493 52.44 115.141 52.6 115.861 52.6ZM132.674 55.168C131.634 55.168 130.682 54.928 129.818 54.448C128.97 53.968 128.29 53.248 127.778 52.288C127.282 51.312 127.034 50.08 127.034 48.592C127.034 47.088 127.274 45.856 127.754 44.896C128.25 43.936 128.922 43.224 129.77 42.76C130.618 42.28 131.586 42.04 132.674 42.04C133.938 42.04 135.05 42.312 136.01 42.856C136.986 43.4 137.754 44.16 138.314 45.136C138.89 46.112 139.178 47.264 139.178 48.592C139.178 49.92 138.89 51.08 138.314 52.072C137.754 53.048 136.986 53.808 136.01 54.352C135.05 54.896 133.938 55.168 132.674 55.168ZM125.57 59.656V42.184H128.426V45.208L128.33 48.616L128.57 52.024V59.656H125.57ZM132.338 52.6C133.058 52.6 133.698 52.44 134.258 52.12C134.834 51.8 135.29 51.336 135.626 50.728C135.962 50.12 136.13 49.408 136.13 48.592C136.13 47.76 135.962 47.048 135.626 46.456C135.29 45.848 134.834 45.384 134.258 45.064C133.698 44.744 133.058 44.584 132.338 44.584C131.618 44.584 130.97 44.744 130.394 45.064C129.818 45.384 129.362 45.848 129.026 46.456C128.69 47.048 128.522 47.76 128.522 48.592C128.522 49.408 128.69 50.12 129.026 50.728C129.362 51.336 129.818 51.8 130.394 52.12C130.97 52.44 131.618 52.6 132.338 52.6ZM147.783 55.168C146.471 55.168 145.303 54.888 144.279 54.328C143.255 53.752 142.447 52.968 141.855 51.976C141.263 50.984 140.967 49.856 140.967 48.592C140.967 47.312 141.263 46.184 141.855 45.208C142.447 44.216 143.255 43.44 144.279 42.88C145.303 42.32 146.471 42.04 147.783 42.04C149.111 42.04 150.287 42.32 151.311 42.88C152.351 43.44 153.159 44.208 153.735 45.184C154.327 46.16 154.623 47.296 154.623 48.592C154.623 49.856 154.327 50.984 153.735 51.976C153.159 52.968 152.351 53.752 151.311 54.328C150.287 54.888 149.111 55.168 147.783 55.168ZM147.783 52.6C148.519 52.6 149.175 52.44 149.751 52.12C150.327 51.8 150.775 51.336 151.095 50.728C151.431 50.12 151.599 49.408 151.599 48.592C151.599 47.76 151.431 47.048 151.095 46.456C150.775 45.848 150.327 45.384 149.751 45.064C149.175 44.744 148.527 44.584 147.807 44.584C147.071 44.584 146.415 44.744 145.839 45.064C145.279 45.384 144.831 45.848 144.495 46.456C144.159 47.048 143.991 47.76 143.991 48.592C143.991 49.408 144.159 50.12 144.495 50.728C144.831 51.336 145.279 51.8 145.839 52.12C146.415 52.44 147.063 52.6 147.783 52.6ZM160.548 55L155.052 42.184H158.172L162.9 53.488H161.364L166.26 42.184H169.14L163.644 55H160.548ZM178.512 55V52.408L178.344 51.856V47.32C178.344 46.44 178.08 45.76 177.552 45.28C177.024 44.784 176.224 44.536 175.152 44.536C174.432 44.536 173.72 44.648 173.016 44.872C172.328 45.096 171.744 45.408 171.264 45.808L170.088 43.624C170.776 43.096 171.592 42.704 172.536 42.448C173.496 42.176 174.488 42.04 175.512 42.04C177.368 42.04 178.8 42.488 179.808 43.384C180.832 44.264 181.344 45.632 181.344 47.488V55H178.512ZM174.48 55.168C173.52 55.168 172.68 55.008 171.96 54.688C171.24 54.352 170.68 53.896 170.28 53.32C169.896 52.728 169.704 52.064 169.704 51.328C169.704 50.608 169.872 49.96 170.208 49.384C170.56 48.808 171.128 48.352 171.912 48.016C172.696 47.68 173.736 47.512 175.032 47.512H178.752V49.504H175.248C174.224 49.504 173.536 49.672 173.184 50.008C172.832 50.328 172.656 50.728 172.656 51.208C172.656 51.752 172.872 52.184 173.304 52.504C173.736 52.824 174.336 52.984 175.104 52.984C175.84 52.984 176.496 52.816 177.072 52.48C177.664 52.144 178.088 51.648 178.344 50.992L178.848 52.792C178.56 53.544 178.04 54.128 177.288 54.544C176.552 54.96 175.616 55.168 174.48 55.168ZM199.987 55.24C198.675 55.24 197.467 55.024 196.363 54.592C195.259 54.16 194.299 53.56 193.483 52.792C192.667 52.008 192.035 51.096 191.587 50.056C191.139 49 190.915 47.848 190.915 46.6C190.915 45.352 191.139 44.208 191.587 43.168C192.035 42.112 192.667 41.2 193.483 40.432C194.299 39.648 195.259 39.04 196.363 38.608C197.467 38.176 198.667 37.96 199.963 37.96C201.275 37.96 202.475 38.176 203.563 38.608C204.667 39.04 205.627 39.648 206.443 40.432C207.259 41.2 207.891 42.112 208.339 43.168C208.787 44.208 209.011 45.352 209.011 46.6C209.011 47.848 208.787 49 208.339 50.056C207.891 51.112 207.259 52.024 206.443 52.792C205.627 53.56 204.667 54.16 203.563 54.592C202.475 55.024 201.283 55.24 199.987 55.24ZM199.963 52.504C200.811 52.504 201.595 52.36 202.315 52.072C203.035 51.784 203.659 51.376 204.187 50.848C204.715 50.304 205.123 49.68 205.411 48.976C205.715 48.256 205.867 47.464 205.867 46.6C205.867 45.736 205.715 44.952 205.411 44.248C205.123 43.528 204.715 42.904 204.187 42.376C203.659 41.832 203.035 41.416 202.315 41.128C201.595 40.84 200.811 40.696 199.963 40.696C199.115 40.696 198.331 40.84 197.611 41.128C196.907 41.416 196.283 41.832 195.739 42.376C195.211 42.904 194.795 43.528 194.491 44.248C194.203 44.952 194.059 45.736 194.059 46.6C194.059 47.448 194.203 48.232 194.491 48.952C194.795 49.672 195.211 50.304 195.739 50.848C196.267 51.376 196.891 51.784 197.611 52.072C198.331 52.36 199.115 52.504 199.963 52.504ZM212.031 55V37.192H215.031V55H212.031ZM224.776 59.824C223.592 59.824 222.432 59.664 221.296 59.344C220.176 59.04 219.256 58.592 218.536 58L219.88 55.744C220.44 56.208 221.144 56.576 221.992 56.848C222.856 57.136 223.728 57.28 224.608 57.28C226.016 57.28 227.048 56.952 227.704 56.296C228.36 55.656 228.688 54.688 228.688 53.392V51.112L228.928 48.208L228.832 45.304V42.184H231.688V53.056C231.688 55.376 231.096 57.08 229.912 58.168C228.728 59.272 227.016 59.824 224.776 59.824ZM224.392 54.424C223.176 54.424 222.072 54.168 221.08 53.656C220.104 53.128 219.328 52.4 218.752 51.472C218.192 50.544 217.912 49.456 217.912 48.208C217.912 46.976 218.192 45.896 218.752 44.968C219.328 44.04 220.104 43.32 221.08 42.808C222.072 42.296 223.176 42.04 224.392 42.04C225.48 42.04 226.456 42.256 227.32 42.688C228.184 43.12 228.872 43.792 229.384 44.704C229.912 45.616 230.176 46.784 230.176 48.208C230.176 49.632 229.912 50.808 229.384 51.736C228.872 52.648 228.184 53.328 227.32 53.776C226.456 54.208 225.48 54.424 224.392 54.424ZM224.848 51.88C225.6 51.88 226.272 51.728 226.864 51.424C227.456 51.104 227.912 50.672 228.232 50.128C228.568 49.568 228.736 48.928 228.736 48.208C228.736 47.488 228.568 46.856 228.232 46.312C227.912 45.752 227.456 45.328 226.864 45.04C226.272 44.736 225.6 44.584 224.848 44.584C224.096 44.584 223.416 44.736 222.808 45.04C222.216 45.328 221.752 45.752 221.416 46.312C221.096 46.856 220.936 47.488 220.936 48.208C220.936 48.928 221.096 49.568 221.416 50.128C221.752 50.672 222.216 51.104 222.808 51.424C223.416 51.728 224.096 51.88 224.848 51.88ZM243.528 55V52.408L243.36 51.856V47.32C243.36 46.44 243.096 45.76 242.568 45.28C242.04 44.784 241.24 44.536 240.168 44.536C239.448 44.536 238.736 44.648 238.032 44.872C237.344 45.096 236.76 45.408 236.28 45.808L235.104 43.624C235.792 43.096 236.608 42.704 237.552 42.448C238.512 42.176 239.504 42.04 240.528 42.04C242.384 42.04 243.816 42.488 244.824 43.384C245.848 44.264 246.36 45.632 246.36 47.488V55H243.528ZM239.496 55.168C238.536 55.168 237.696 55.008 236.976 54.688C236.256 54.352 235.696 53.896 235.296 53.32C234.912 52.728 234.72 52.064 234.72 51.328C234.72 50.608 234.888 49.96 235.224 49.384C235.576 48.808 236.144 48.352 236.928 48.016C237.712 47.68 238.752 47.512 240.048 47.512H243.768V49.504H240.264C239.24 49.504 238.552 49.672 238.2 50.008C237.848 50.328 237.672 50.728 237.672 51.208C237.672 51.752 237.888 52.184 238.32 52.504C238.752 52.824 239.352 52.984 240.12 52.984C240.856 52.984 241.512 52.816 242.088 52.48C242.68 52.144 243.104 51.648 243.36 50.992L243.864 52.792C243.576 53.544 243.056 54.128 242.304 54.544C241.568 54.96 240.632 55.168 239.496 55.168ZM257.131 55V38.2H259.699L270.235 51.136H268.963V38.2H272.059V55H269.491L258.955 42.064H260.227V55H257.131ZM276.273 55V42.184H279.273V55H276.273ZM277.785 40.072C277.225 40.072 276.761 39.896 276.393 39.544C276.041 39.192 275.865 38.768 275.865 38.272C275.865 37.76 276.041 37.336 276.393 37C276.761 36.648 277.225 36.472 277.785 36.472C278.345 36.472 278.801 36.64 279.153 36.976C279.521 37.296 279.705 37.704 279.705 38.2C279.705 38.728 279.529 39.176 279.177 39.544C278.825 39.896 278.361 40.072 277.785 40.072ZM285.658 52.144L285.73 48.376L292.426 42.184H296.026L290.338 47.896L288.754 49.216L285.658 52.144ZM283.21 55V37.192H286.21V55H283.21ZM292.882 55L288.202 49.216L290.098 46.816L296.53 55H292.882ZM303.712 55.168C302.4 55.168 301.232 54.888 300.208 54.328C299.184 53.752 298.376 52.968 297.784 51.976C297.192 50.984 296.896 49.856 296.896 48.592C296.896 47.312 297.192 46.184 297.784 45.208C298.376 44.216 299.184 43.44 300.208 42.88C301.232 42.32 302.4 42.04 303.712 42.04C305.04 42.04 306.216 42.32 307.24 42.88C308.28 43.44 309.088 44.208 309.664 45.184C310.256 46.16 310.552 47.296 310.552 48.592C310.552 49.856 310.256 50.984 309.664 51.976C309.088 52.968 308.28 53.752 307.24 54.328C306.216 54.888 305.04 55.168 303.712 55.168ZM303.712 52.6C304.448 52.6 305.104 52.44 305.68 52.12C306.256 51.8 306.704 51.336 307.024 50.728C307.36 50.12 307.528 49.408 307.528 48.592C307.528 47.76 307.36 47.048 307.024 46.456C306.704 45.848 306.256 45.384 305.68 45.064C305.104 44.744 304.456 44.584 303.736 44.584C303 44.584 302.344 44.744 301.768 45.064C301.208 45.384 300.76 45.848 300.424 46.456C300.088 47.048 299.92 47.76 299.92 48.592C299.92 49.408 300.088 50.12 300.424 50.728C300.76 51.336 301.208 51.8 301.768 52.12C302.344 52.44 302.992 52.6 303.712 52.6ZM313.421 55V37.192H316.421V55H313.421ZM328.255 55V52.408L328.087 51.856V47.32C328.087 46.44 327.823 45.76 327.295 45.28C326.767 44.784 325.967 44.536 324.895 44.536C324.175 44.536 323.463 44.648 322.759 44.872C322.071 45.096 321.487 45.408 321.007 45.808L319.831 43.624C320.519 43.096 321.335 42.704 322.279 42.448C323.239 42.176 324.231 42.04 325.255 42.04C327.111 42.04 328.543 42.488 329.551 43.384C330.575 44.264 331.087 45.632 331.087 47.488V55H328.255ZM324.223 55.168C323.263 55.168 322.423 55.008 321.703 54.688C320.983 54.352 320.423 53.896 320.023 53.32C319.639 52.728 319.447 52.064 319.447 51.328C319.447 50.608 319.615 49.96 319.951 49.384C320.303 48.808 320.871 48.352 321.655 48.016C322.439 47.68 323.479 47.512 324.775 47.512H328.495V49.504H324.991C323.967 49.504 323.279 49.672 322.927 50.008C322.575 50.328 322.399 50.728 322.399 51.208C322.399 51.752 322.615 52.184 323.047 52.504C323.479 52.824 324.079 52.984 324.847 52.984C325.583 52.984 326.239 52.816 326.815 52.48C327.407 52.144 327.831 51.648 328.087 50.992L328.591 52.792C328.303 53.544 327.783 54.128 327.031 54.544C326.295 54.96 325.359 55.168 324.223 55.168ZM340.984 55.168C339.56 55.168 338.312 54.888 337.24 54.328C336.184 53.752 335.36 52.968 334.768 51.976C334.192 50.984 333.904 49.856 333.904 48.592C333.904 47.312 334.184 46.184 334.744 45.208C335.32 44.216 336.104 43.44 337.096 42.88C338.104 42.32 339.248 42.04 340.528 42.04C341.776 42.04 342.888 42.312 343.864 42.856C344.84 43.4 345.608 44.168 346.168 45.16C346.728 46.152 347.008 47.32 347.008 48.664C347.008 48.792 347 48.936 346.984 49.096C346.984 49.256 346.976 49.408 346.96 49.552H336.28V47.56H345.376L344.2 48.184C344.216 47.448 344.064 46.8 343.744 46.24C343.424 45.68 342.984 45.24 342.424 44.92C341.88 44.6 341.248 44.44 340.528 44.44C339.792 44.44 339.144 44.6 338.584 44.92C338.04 45.24 337.608 45.688 337.288 46.264C336.984 46.824 336.832 47.488 336.832 48.256V48.736C336.832 49.504 337.008 50.184 337.36 50.776C337.712 51.368 338.208 51.824 338.848 52.144C339.488 52.464 340.224 52.624 341.056 52.624C341.776 52.624 342.424 52.512 343 52.288C343.576 52.064 344.088 51.712 344.536 51.232L346.144 53.08C345.568 53.752 344.84 54.272 343.96 54.64C343.096 54.992 342.104 55.168 340.984 55.168ZM353.064 55L347.567 42.184H350.688L355.416 53.488H353.88L358.776 42.184H361.656L356.16 55H353.064ZM370.803 42.04C371.827 42.04 372.739 42.24 373.539 42.64C374.355 43.04 374.995 43.656 375.459 44.488C375.923 45.304 376.155 46.36 376.155 47.656V55H373.155V48.04C373.155 46.904 372.883 46.056 372.339 45.496C371.811 44.936 371.067 44.656 370.107 44.656C369.403 44.656 368.779 44.8 368.235 45.088C367.691 45.376 367.267 45.808 366.963 46.384C366.675 46.944 366.531 47.656 366.531 48.52V55H363.531V42.184H366.387V45.64L365.883 44.584C366.331 43.768 366.979 43.144 367.827 42.712C368.691 42.264 369.683 42.04 370.803 42.04ZM387.856 55V52.408L387.688 51.856V47.32C387.688 46.44 387.424 45.76 386.896 45.28C386.368 44.784 385.568 44.536 384.496 44.536C383.776 44.536 383.064 44.648 382.36 44.872C381.672 45.096 381.088 45.408 380.608 45.808L379.432 43.624C380.12 43.096 380.936 42.704 381.88 42.448C382.84 42.176 383.832 42.04 384.856 42.04C386.712 42.04 388.144 42.488 389.152 43.384C390.176 44.264 390.688 45.632 390.688 47.488V55H387.856ZM383.824 55.168C382.864 55.168 382.024 55.008 381.304 54.688C380.584 54.352 380.024 53.896 379.624 53.32C379.24 52.728 379.048 52.064 379.048 51.328C379.048 50.608 379.216 49.96 379.552 49.384C379.904 48.808 380.472 48.352 381.256 48.016C382.04 47.68 383.08 47.512 384.376 47.512H388.096V49.504H384.592C383.568 49.504 382.88 49.672 382.528 50.008C382.176 50.328 382 50.728 382 51.208C382 51.752 382.216 52.184 382.648 52.504C383.08 52.824 383.68 52.984 384.448 52.984C385.184 52.984 385.84 52.816 386.416 52.48C387.008 52.144 387.432 51.648 387.688 50.992L388.192 52.792C387.904 53.544 387.384 54.128 386.632 54.544C385.896 54.96 384.96 55.168 383.824 55.168Z" fill="#464646"/>
<path d="M475.028 46.3592C474.663 46.3592 474.313 46.217 474.055 45.9639C473.796 45.7108 473.651 45.3676 473.651 45.0097C473.648 42.1474 472.487 39.4031 470.422 37.3792C468.356 35.3552 465.556 34.2169 462.635 34.214C462.27 34.214 461.92 34.0719 461.662 33.8188C461.403 33.5657 461.258 33.2225 461.258 32.8646C461.258 32.5067 461.403 32.1634 461.662 31.9104C461.92 31.6573 462.27 31.5151 462.635 31.5151C466.286 31.519 469.786 32.9421 472.368 35.4719C474.949 38.0018 476.401 41.4319 476.405 45.0097C476.405 45.3676 476.26 45.7108 476.002 45.9639C475.744 46.217 475.394 46.3592 475.028 46.3592ZM470.897 45.0097C470.897 42.8623 470.027 40.8029 468.478 39.2844C466.928 37.766 464.827 36.913 462.635 36.913C462.27 36.913 461.92 37.0551 461.662 37.3082C461.403 37.5613 461.258 37.9045 461.258 38.2624C461.258 38.6203 461.403 38.9636 461.662 39.2166C461.92 39.4697 462.27 39.6119 462.635 39.6119C464.096 39.6119 465.497 40.1806 466.53 41.1929C467.563 42.2052 468.143 43.5781 468.143 45.0097C468.143 45.3676 468.288 45.7108 468.547 45.9639C468.805 46.217 469.155 46.3592 469.52 46.3592C469.886 46.3592 470.236 46.217 470.494 45.9639C470.752 45.7108 470.897 45.3676 470.897 45.0097ZM473.903 61.4245L475.156 60.0089C475.954 59.2248 476.402 58.1628 476.402 57.0557C476.402 55.9485 475.954 54.8865 475.156 54.1024C475.114 54.0605 471.801 51.5627 471.801 51.5627C471.006 50.8209 469.949 50.4079 468.852 50.4094C467.754 50.4109 466.699 50.8268 465.906 51.5708L463.281 53.738C461.139 52.8691 459.193 51.594 457.555 49.9859C455.917 48.3778 454.619 46.4684 453.736 44.3674L455.939 41.8034C456.699 41.0263 457.124 39.9923 457.125 38.9161C457.127 37.8399 456.706 36.8045 455.949 36.025C455.949 36.025 453.397 32.7823 453.354 32.7404C452.569 31.9655 451.504 31.5246 450.389 31.513C449.274 31.5014 448.2 31.92 447.398 32.6783L445.814 34.0278C436.459 44.6642 456.604 64.2543 467.816 63.9021C468.948 63.9086 470.07 63.6926 471.115 63.2671C472.161 62.8416 473.109 62.215 473.903 61.4245Z" fill="#464646"/>
<path d="M483.406 53.144V42.056H486.502V53.144H483.406ZM479.254 49.064V46.136H490.678V49.064H479.254ZM495.522 56L502.29 40.688L503.298 42.368H494.25L495.978 40.544V45.104H492.522V39.2H505.986V41.72L499.746 56H495.522ZM513.621 38.912C515.173 38.912 516.509 39.232 517.629 39.872C518.749 40.512 519.613 41.448 520.221 42.68C520.829 43.896 521.133 45.416 521.133 47.24C521.133 49.176 520.765 50.816 520.029 52.16C519.309 53.504 518.309 54.528 517.029 55.232C515.749 55.936 514.261 56.288 512.565 56.288C511.685 56.288 510.837 56.192 510.021 56C509.205 55.808 508.501 55.52 507.909 55.136L509.349 52.28C509.813 52.6 510.309 52.824 510.837 52.952C511.365 53.064 511.917 53.12 512.493 53.12C513.933 53.12 515.077 52.68 515.925 51.8C516.789 50.92 517.221 49.616 517.221 47.888C517.221 47.6 517.213 47.28 517.197 46.928C517.181 46.576 517.141 46.224 517.077 45.872L518.133 46.88C517.861 47.504 517.477 48.032 516.981 48.464C516.485 48.88 515.909 49.2 515.253 49.424C514.597 49.632 513.861 49.736 513.045 49.736C511.973 49.736 510.997 49.52 510.117 49.088C509.253 48.656 508.557 48.048 508.029 47.264C507.517 46.48 507.261 45.56 507.261 44.504C507.261 43.352 507.541 42.36 508.101 41.528C508.677 40.696 509.445 40.056 510.405 39.608C511.381 39.144 512.453 38.912 513.621 38.912ZM513.861 41.816C513.301 41.816 512.813 41.92 512.397 42.128C511.981 42.32 511.653 42.608 511.413 42.992C511.173 43.36 511.053 43.8 511.053 44.312C511.053 45.08 511.309 45.696 511.821 46.16C512.349 46.608 513.045 46.832 513.909 46.832C514.469 46.832 514.965 46.728 515.397 46.52C515.845 46.296 516.189 45.992 516.429 45.608C516.669 45.224 516.789 44.792 516.789 44.312C516.789 43.832 516.669 43.408 516.429 43.04C516.205 42.656 515.877 42.36 515.445 42.152C515.013 41.928 514.485 41.816 513.861 41.816ZM530.511 56.288C528.975 56.288 527.639 55.968 526.503 55.328C525.383 54.688 524.519 53.752 523.911 52.52C523.303 51.288 522.999 49.768 522.999 47.96C522.999 46.024 523.359 44.384 524.079 43.04C524.815 41.696 525.823 40.672 527.103 39.968C528.399 39.264 529.887 38.912 531.567 38.912C532.463 38.912 533.319 39.008 534.135 39.2C534.951 39.392 535.655 39.68 536.247 40.064L534.807 42.92C534.343 42.6 533.847 42.384 533.319 42.272C532.791 42.144 532.239 42.08 531.663 42.08C530.207 42.08 529.055 42.52 528.207 43.4C527.359 44.28 526.935 45.584 526.935 47.312C526.935 47.6 526.935 47.92 526.935 48.272C526.951 48.624 526.999 48.976 527.079 49.328L525.999 48.32C526.303 47.696 526.695 47.176 527.175 46.76C527.655 46.328 528.223 46.008 528.879 45.8C529.551 45.576 530.287 45.464 531.087 45.464C532.175 45.464 533.151 45.68 534.015 46.112C534.879 46.544 535.567 47.152 536.079 47.936C536.607 48.72 536.871 49.64 536.871 50.696C536.871 51.832 536.583 52.824 536.007 53.672C535.447 54.504 534.687 55.152 533.727 55.616C532.783 56.064 531.711 56.288 530.511 56.288ZM530.295 53.384C530.839 53.384 531.319 53.288 531.735 53.096C532.167 52.888 532.503 52.592 532.743 52.208C532.983 51.824 533.103 51.384 533.103 50.888C533.103 50.12 532.839 49.512 532.311 49.064C531.799 48.6 531.111 48.368 530.247 48.368C529.671 48.368 529.167 48.48 528.735 48.704C528.303 48.912 527.959 49.208 527.703 49.592C527.463 49.96 527.343 50.392 527.343 50.888C527.343 51.368 527.463 51.8 527.703 52.184C527.943 52.552 528.279 52.848 528.711 53.072C529.143 53.28 529.671 53.384 530.295 53.384ZM543.728 56.288C542.56 56.288 541.4 56.136 540.248 55.832C539.096 55.512 538.12 55.064 537.32 54.488L538.832 51.512C539.472 51.976 540.216 52.344 541.064 52.616C541.912 52.888 542.768 53.024 543.632 53.024C544.608 53.024 545.376 52.832 545.936 52.448C546.496 52.064 546.776 51.536 546.776 50.864C546.776 50.224 546.528 49.72 546.032 49.352C545.536 48.984 544.736 48.8 543.632 48.8H541.856V46.232L546.536 40.928L546.968 42.32H538.16V39.2H549.92V41.72L545.264 47.024L543.296 45.896H544.424C546.488 45.896 548.048 46.36 549.104 47.288C550.16 48.216 550.688 49.408 550.688 50.864C550.688 51.808 550.44 52.696 549.944 53.528C549.448 54.344 548.688 55.008 547.664 55.52C546.64 56.032 545.328 56.288 543.728 56.288ZM557.961 56.288C556.793 56.288 555.633 56.136 554.48 55.832C553.345 55.512 552.369 55.064 551.553 54.488L553.089 51.512C553.729 51.976 554.465 52.344 555.297 52.616C556.145 52.888 557.001 53.024 557.865 53.024C558.841 53.024 559.609 52.832 560.169 52.448C560.729 52.064 561.009 51.528 561.009 50.84C561.009 50.408 560.897 50.024 560.673 49.688C560.449 49.352 560.049 49.096 559.473 48.92C558.913 48.744 558.121 48.656 557.097 48.656H552.801L553.665 39.2H563.913V42.32H555.057L557.073 40.544L556.473 47.288L554.457 45.512H558.009C559.673 45.512 561.009 45.744 562.017 46.208C563.041 46.656 563.785 47.272 564.249 48.056C564.713 48.84 564.945 49.728 564.945 50.72C564.945 51.712 564.697 52.632 564.201 53.48C563.705 54.312 562.937 54.992 561.897 55.52C560.873 56.032 559.561 56.288 557.961 56.288ZM573.722 56.288C572.346 56.288 571.114 55.952 570.026 55.28C568.938 54.592 568.082 53.6 567.458 52.304C566.834 51.008 566.522 49.44 566.522 47.6C566.522 45.76 566.834 44.192 567.458 42.896C568.082 41.6 568.938 40.616 570.026 39.944C571.114 39.256 572.346 38.912 573.722 38.912C575.114 38.912 576.346 39.256 577.418 39.944C578.506 40.616 579.362 41.6 579.986 42.896C580.61 44.192 580.922 45.76 580.922 47.6C580.922 49.44 580.61 51.008 579.986 52.304C579.362 53.6 578.506 54.592 577.418 55.28C576.346 55.952 575.114 56.288 573.722 56.288ZM573.722 53C574.378 53 574.946 52.816 575.426 52.448C575.922 52.08 576.306 51.496 576.578 50.696C576.866 49.896 577.01 48.864 577.01 47.6C577.01 46.336 576.866 45.304 576.578 44.504C576.306 43.704 575.922 43.12 575.426 42.752C574.946 42.384 574.378 42.2 573.722 42.2C573.082 42.2 572.514 42.384 572.018 42.752C571.538 43.12 571.154 43.704 570.866 44.504C570.594 45.304 570.458 46.336 570.458 47.6C570.458 48.864 570.594 49.896 570.866 50.696C571.154 51.496 571.538 52.08 572.018 52.448C572.514 52.816 573.082 53 573.722 53ZM588.025 56.288C586.857 56.288 585.697 56.136 584.545 55.832C583.393 55.512 582.417 55.064 581.617 54.488L583.129 51.512C583.769 51.976 584.513 52.344 585.361 52.616C586.209 52.888 587.065 53.024 587.929 53.024C588.905 53.024 589.673 52.832 590.233 52.448C590.793 52.064 591.073 51.536 591.073 50.864C591.073 50.224 590.825 49.72 590.329 49.352C589.833 48.984 589.033 48.8 587.929 48.8H586.153V46.232L590.833 40.928L591.265 42.32H582.457V39.2H594.217V41.72L589.561 47.024L587.593 45.896H588.721C590.785 45.896 592.345 46.36 593.401 47.288C594.457 48.216 594.985 49.408 594.985 50.864C594.985 51.808 594.737 52.696 594.241 53.528C593.745 54.344 592.985 55.008 591.961 55.52C590.937 56.032 589.625 56.288 588.025 56.288ZM602.111 56.288C600.943 56.288 599.783 56.136 598.631 55.832C597.479 55.512 596.503 55.064 595.703 54.488L597.215 51.512C597.855 51.976 598.599 52.344 599.447 52.616C600.295 52.888 601.151 53.024 602.015 53.024C602.991 53.024 603.759 52.832 604.319 52.448C604.879 52.064 605.159 51.536 605.159 50.864C605.159 50.224 604.911 49.72 604.415 49.352C603.919 48.984 603.119 48.8 602.015 48.8H600.239V46.232L604.919 40.928L605.351 42.32H596.543V39.2H608.303V41.72L603.647 47.024L601.679 45.896H602.807C604.871 45.896 606.431 46.36 607.487 47.288C608.543 48.216 609.071 49.408 609.071 50.864C609.071 51.808 608.823 52.696 608.327 53.528C607.831 54.344 607.071 55.008 606.047 55.52C605.023 56.032 603.711 56.288 602.111 56.288ZM610.674 52.472V49.856L618.594 39.2H622.674L614.922 49.856L613.026 49.304H626.25V52.472H610.674ZM619.722 56V52.472L619.842 49.304V46.16H623.514V56H619.722ZM633.246 38.912C634.798 38.912 636.134 39.232 637.254 39.872C638.374 40.512 639.238 41.448 639.846 42.68C640.454 43.896 640.758 45.416 640.758 47.24C640.758 49.176 640.39 50.816 639.654 52.16C638.934 53.504 637.934 54.528 636.654 55.232C635.374 55.936 633.886 56.288 632.19 56.288C631.31 56.288 630.462 56.192 629.646 56C628.83 55.808 628.126 55.52 627.534 55.136L628.974 52.28C629.438 52.6 629.934 52.824 630.462 52.952C630.99 53.064 631.542 53.12 632.118 53.12C633.558 53.12 634.702 52.68 635.55 51.8C636.414 50.92 636.846 49.616 636.846 47.888C636.846 47.6 636.838 47.28 636.822 46.928C636.806 46.576 636.766 46.224 636.702 45.872L637.758 46.88C637.486 47.504 637.102 48.032 636.606 48.464C636.11 48.88 635.534 49.2 634.878 49.424C634.222 49.632 633.486 49.736 632.67 49.736C631.598 49.736 630.622 49.52 629.742 49.088C628.878 48.656 628.182 48.048 627.654 47.264C627.142 46.48 626.886 45.56 626.886 44.504C626.886 43.352 627.166 42.36 627.726 41.528C628.302 40.696 629.07 40.056 630.03 39.608C631.006 39.144 632.078 38.912 633.246 38.912ZM633.486 41.816C632.926 41.816 632.438 41.92 632.022 42.128C631.606 42.32 631.278 42.608 631.038 42.992C630.798 43.36 630.678 43.8 630.678 44.312C630.678 45.08 630.934 45.696 631.446 46.16C631.974 46.608 632.67 46.832 633.534 46.832C634.094 46.832 634.59 46.728 635.022 46.52C635.47 46.296 635.814 45.992 636.054 45.608C636.294 45.224 636.414 44.792 636.414 44.312C636.414 43.832 636.294 43.408 636.054 43.04C635.83 42.656 635.502 42.36 635.07 42.152C634.638 41.928 634.11 41.816 633.486 41.816ZM642.432 52.472V49.856L650.352 39.2H654.432L646.68 49.856L644.784 49.304H658.008V52.472H642.432ZM651.48 56V52.472L651.6 49.304V46.16H655.272V56H651.48Z" fill="#464646"/>
<defs>
<filter id="filter0_d_4_9" x="0" y="0" width="96.2703" height="103.837" filterUnits="userSpaceOnUse" color-interpolation-filters="sRGB">
<feFlood flood-opacity="0" result="BackgroundImageFix"/>
<feColorMatrix in="SourceAlpha" type="matrix" values="0 0 0 0 0 0 0 0 0 0 0 0 0 0 0 0 0 0 127 0" result="hardAlpha"/>
<feOffset dx="3" dy="4"/>
<feGaussianBlur stdDeviation="6.5"/>
<feComposite in2="hardAlpha" operator="out"/>
<feColorMatrix type="matrix" values="0 0 0 0 0 0 0 0 0 0 0 0 0 0 0 0 0 0 0.25 0"/>
<feBlend mode="normal" in2="BackgroundImageFix" result="effect1_dropShadow_4_9"/>
<feBlend mode="normal" in="SourceGraphic" in2="effect1_dropShadow_4_9" result="shape"/>
</filter>
<clipPath id="clip0_4_9">
<rect width="51.8919" height="51.8919" fill="white" transform="translate(15.7928 20.8604) rotate(-6.71469)"/>
</clipPath>
</defs>
</svg>
