<svg width="60" height="60" viewBox="0 0 60 60" fill="none" xmlns="http://www.w3.org/2000/svg">
<path fill-rule="evenodd" clip-rule="evenodd" d="M51.1575 8.72C45.5425 3.1 38.0775 0.0025 30.125 0C13.7375 0 0.400002 13.335 0.392502 29.73C0.390002 34.97 1.76 40.085 4.3625 44.595L0.142502 60L15.9025 55.865C20.245 58.235 25.135 59.4825 30.11 59.485H30.1225C46.5075 59.485 59.8475 46.1475 59.855 29.7525C59.86 21.81 56.77 14.3375 51.1575 8.72ZM30.125 54.4625H30.115C25.68 54.4625 21.3325 53.27 17.5375 51.0175L16.635 50.4825L7.2825 52.935L9.78 43.815L9.1925 42.88C6.7175 38.945 5.4125 34.3975 5.415 29.73C5.42 16.105 16.5075 5.02 30.1375 5.02C36.7375 5.02 42.9425 7.595 47.6075 12.265C52.2725 16.9375 54.84 23.145 54.8375 29.7475C54.83 43.3775 43.745 54.4625 30.125 54.4625ZM43.68 35.955C42.9375 35.5825 39.285 33.785 38.6025 33.5375C37.9225 33.29 37.4275 33.165 36.93 33.9075C36.4325 34.65 35.0125 36.325 34.5775 36.8225C34.145 37.3175 33.71 37.38 32.9675 37.0075C32.225 36.635 29.83 35.8525 26.9925 33.32C24.785 31.35 23.2925 28.9175 22.86 28.1725C22.4275 27.4275 22.815 27.0275 23.185 26.6575C23.52 26.325 23.9275 25.79 24.3 25.355C24.675 24.925 24.7975 24.615 25.0475 24.1175C25.295 23.6225 25.1725 23.1875 24.985 22.815C24.7975 22.445 23.3125 18.7875 22.695 17.3C22.0925 15.85 21.48 16.0475 21.0225 16.025C20.59 16.0025 20.095 16 19.5975 16C19.1025 16 18.2975 16.185 17.6175 16.93C16.9375 17.675 15.0175 19.4725 15.0175 23.1275C15.0175 26.785 17.68 30.3175 18.05 30.8125C18.42 31.3075 23.2875 38.8125 30.74 42.03C32.5125 42.795 33.8975 43.2525 34.975 43.595C36.755 44.16 38.375 44.08 39.655 43.89C41.0825 43.6775 44.05 42.0925 44.67 40.3575C45.29 38.6225 45.29 37.1325 45.1025 36.825C44.9175 36.5125 44.4225 36.3275 43.68 35.955Z" fill="white"/>
</svg>
